<svg viewBox="0 -0.2 2489.4 360.2" xmlns="http://www.w3.org/2000/svg" width="2500" height="362"><path d="M650.2 21.6c-4.1-8.3-15.2-15.1-24.5-15.1h-19c-9.3 0-20.2 6.9-24.2 15.3l-150.3 314c-4.2 8.3.4 14.3 9.7 14.3h34.7c13.7 0 20-6.2 23.7-13.9 3.7-7.6 12-24.3 13.6-27.6 2.1-4.6 8.7-7.4 18.1-7.4h161.7c9.3.1 15.3 1.9 18.1 7.4 1.8 3.6 10.1 18.5 14.1 26.7 4.1 8.2 11 14.8 24.3 14.8h50.4c9.3 0 13.4-7.1 10-13.6-3.4-6.6-160.5-314.8-160.5-314.8h.1zm-95 231.1c-9.3 0-13.7-6.9-9.8-15.4l59.2-126.9c3.9-8.5 10.3-8.4 14.2 0l57.7 126.9c3.8 8.5-.6 15.4-9.9 15.4H555.2zM1811.7 24.1v311.5c0 8.6 7.6 14.5 16.9 14.5h41.1c9.3 0 16.9-5.9 16.9-15.3V23.4c0-9.3-6-16.9-15.3-16.9h-42.7c-9.3 0-16.9 5.7-16.9 17.6zm-688.4 195.1c-5.4-7.6-2.4-16 6.5-18.7 0 0 35.5-10.6 52.5-25.9s25.5-37.3 25.5-66.1-3.3-34.6-9.8-47.5c-6.5-12.8-15.9-23.3-28.1-31.3-12.2-8.1-26.8-14-43.8-17.7s-40-4.8-40-4.8c-11.3-.5-22.6-.7-33.8-.8H881.7c-9.3 0-16.9 7.6-16.9 16.9v311.4c0 9.3 7.6 15.3 16.9 15.3h40.4c9.3 0 16.9-5.9 16.9-15.3V210.9v-.2c0-.2 76.5-.2 76.5-.2 9.3 0 21.3 6.2 26.7 13.8l79.4 111.9c7.4 9.9 14.4 13.8 23.7 13.8h52.8c9.3 0 10.8-8.8 7.6-13.3s-82.5-117.5-82.5-117.5zm-32.1-63.2c-10.5 2.4-22.2 2.9-22.2 2.9-11.3.5-22.6.7-33.8.7h-79.1c-9.3 0-16.9-7.6-16.9-16.9V79.6c0-9.3 7.6-16.9 16.9-16.9h79.1c9.3 0 24.5.3 33.8.7 0 0 11.8.5 22.2 2.9 10.5 2.4 18.7 5.8 24.8 10.1 6.1 4.4 10.4 9.5 13.1 15.4 2.6 5.9 3.9 12.3 3.9 19.3s-1.3 13.4-3.9 19.3-7 11-13.1 15.4-14.4 7.8-24.8 10.2zM2316 6.5c-9.3 0-16.8 6.1-16.8 15.1v199.2c.1 9.3-5.2 11.5-11.6 4.7L2088.2 18.6c-6.5-6.7-15.9-12.2-28.7-12.2H2022c-11.8 0-17 6.3-17 12.7v318.5c0 6.4 6.1 12.4 15.4 12.4h37.6c9.3 0 15.8-5.1 15.8-13.6s.2-209.8.2-209.8c0-9.3 5.3-11.4 11.7-4.7l207.9 216.2c6.6 6.6 14.6 12 28.9 12h28.2c9.3 0 16.9-7.6 16.9-16.9V23.4c0-9.3-7.6-16.9-16.9-16.9zm-813.1 194.2c-4.5 8.1-12 8.1-16.4 0l-97.5-179c-4.1-8.3-12.6-15.1-24.5-15.1h-52.9c-9.3 0-17 7.6-17 16.9v311c0 9.3 6.1 15.7 17 15.7h32.9c9.3 0 16-5.9 16-14.9s0-226.2.5-226.2 121.7 226.1 121.7 226.1c4.4 8.2 15.2 8.2 19.7 0 0 0 122.3-225.5 122.7-225.5s.2 219 .2 225.5 7.2 14.9 16.5 14.9h37.9c9.3 0 16.9-4.6 16.9-16.9V23.4c0-9.3-7.6-16.9-16.9-16.9H1629c-12.9 0-20.7 6.6-25.3 14.7L1503 200.7zM0 178c0 167.8 171.6 176.3 206 176.3 113.9 0 162-30.8 164-32.1 7.1-4 15.8-12.2 15.8-27.4V179c0-10.7-8.7-19.3-19.4-19.4H223.3c-10.7 0-17.7 8.7-17.7 19.4v12c0 10.7 7 19.4 17.7 19.4H306c8 0 14.5 6.5 14.5 14.5v54c-16.3 6.7-90.8 28.4-150.6 14.2-86.8-20.8-93.6-92.4-93.6-113.8S81.7 71.1 188.3 62c86.3-7.4 143.1 27.4 143.7 27.8 10.1 5.3 20.6 1.5 26.3-9.2l10.8-21.8c4.5-8.9 3-18.2-7.9-25.6C360.5 32.8 300 0 206.1 0 5.8-.2 0 159.7 0 178zM2449.6 316.3c4.6 0 9.2 0 9.2-6.2s-3.8-6.2-6.9-6.2h-7v12.5h4.7zm-4.7 25.2h-9.1v-44.7h17.3c10.2 0 14.2 5.1 14.2 13.2s-4.3 12.1-9.9 12.9l9.3 18.6h-8.3l-8-17.3h-5.4v17.3zm36.1-21.3c0-18.3-13.2-31.5-31.5-31.5s-31.5 14.2-31.5 31.5 13.2 31.5 31.5 31.5 31.5-14.2 31.5-31.5zm8.4 0c0 22.1-17.7 39.8-39.8 39.8s-39.8-17.7-39.8-39.8 17.7-39.8 39.8-39.8 39.8 17.7 39.8 39.8z"/></svg>